<?xml version="1.0"?>
<svg xmlns="http://www.w3.org/2000/svg" viewBox="0 0 512 512" width="512" height="512"><g id="Out_line" data-name="Out line"><path d="M488,304H472a8.00235,8.00235,0,0,0-5.65723,2.34277l-2.93652,2.9375-8.65137-6.92187a75.08671,75.08671,0,0,0-58.5459-15.37988,92.87918,92.87918,0,0,0-20.83007-24.57618l-34.25782-28.54785a7.92277,7.92277,0,0,0-.68359-.51074l-20.55469-13.70313a82.73808,82.73808,0,0,0-62.51367-12.14916l-36.89941-22.13892-13.98047-10.48633A74.8025,74.8025,0,0,0,161.88867,160h-7.68359a41.58593,41.58593,0,0,0-15.36768,2.94385l-14.3999-9.6001-48-32a8.00113,8.00113,0,0,0-10.51172,1.4502l-48,56a8.00078,8.00078,0,0,0,.417,10.86328l10.168,10.168a25.54478,25.54478,0,0,0,18.042,7.4707q.70167,0,1.40723-.03906a25.52138,25.52138,0,0,0,13.43775-4.73829l11.946,17.91895a8.00073,8.00073,0,0,0,12.31348,1.21973l3.92285-3.92285,10.8418,5.42089a8.00133,8.00133,0,0,0,9.23535-1.498l4.98217-4.98316a41.579,41.579,0,0,0,9.57544,14.85523l2.67774,2.67773a44.30059,44.30059,0,0,0,7.73633,39.24805,56.39622,56.39622,0,0,0-2.05079,33.83984L141.75391,344H128a27.13564,27.13564,0,0,0-19.31445,8L104,356.68555A27.13564,27.13564,0,0,0,96,376a8.00039,8.00039,0,0,0,8,8h57.52051a23.92245,23.92245,0,0,0,23.87988-21.6123l4.042-40.41895a125.40451,125.40451,0,0,0-5.13965-50.293q.87306-3.82909,1.47071-7.67578h28.92871l21.57007,7.19043A310.54405,310.54405,0,0,0,306.168,310.2832l2.86133,1.14453c.05371.02149.10742.043.16211.0625l64,24a8.01358,8.01358,0,0,0,1.23925.3545l68.583,13.71679A20.87643,20.87643,0,0,0,432,368.03418V376a8.00039,8.00039,0,0,0,8,8h48a8.00039,8.00039,0,0,0,8-8V312A8.00039,8.00039,0,0,0,488,304ZM311.00781,232.95312l15.27295,10.18238-18.884,50.35766a294.55244,294.55244,0,0,1-57.96265-32.4956l12.709-38.1272A66.70352,66.70352,0,0,1,311.00781,232.95312ZM53.97266,187.72754a9.50763,9.50763,0,0,1-14.14746.7832L34.89551,183.582l38.56543-44.99316L107.57812,161.333a20.87385,20.87385,0,0,1-23.14062.01074,8.00158,8.00158,0,0,0-10.68457,1.6582L53.97266,187.72656ZM112.06323,200H112a8.00235,8.00235,0,0,0-5.65723,2.34277l-3.92285,3.92285-10.8418-5.42089a8.00182,8.00182,0,0,0-9.23535,1.498l-1.09961,1.10059-8.79663-13.19531,9.6814-12.10157a36.8887,36.8887,0,0,0,39.36133-7.53906l2.80371,1.86939A41.58011,41.58011,0,0,0,112.06323,200Zm61.45923,120.377-4.042,40.41895a7.97506,7.97506,0,0,1-7.96,7.2041H115.31445L120,363.31445A11.23593,11.23593,0,0,1,128,360h24a8,8,0,0,0,7.76074-9.94043l-11.66113-46.64551a40.38928,40.38928,0,0,1,3.05566-27.83691,8.00033,8.00033,0,0,0-1.498-9.23438A28.45846,28.45846,0,0,1,141.33252,248h29.73267a94.28964,94.28964,0,0,1-2.82593,22.05957,8.00353,8.00353,0,0,0,.1709,4.46973A109.56813,109.56813,0,0,1,173.52246,320.377Zm45.00781-71.96679A8.0151,8.0151,0,0,0,216,248H187.07324a109.50242,109.50242,0,0,0-7.89551-41.59766l-3.75-9.374-14.85546,5.94336,3.75,9.37305A94.41155,94.41155,0,0,1,169.80542,232h-25.821a7.98669,7.98669,0,0,0-2.32715-5.65723l-6.12793-6.12793a25.705,25.705,0,0,1,3.91406-39.5625l.50293-.335A25.62943,25.62943,0,0,1,154.20508,176h7.68359a58.70853,58.70853,0,0,1,35.001,11.666l14.31055,10.73437c.21972.16406.44824.31836.68359.46l34.49707,20.69824-11.44043,34.32227Zm159.67285,71.87207-55.9038-20.96436,17.23462-45.95923,25.60278,21.33472a77.06494,77.06494,0,0,1,19.708,24.88476,8.00212,8.00212,0,0,0,9.0957,4.18262,58.94761,58.94761,0,0,1,50.81934,11.0918l9.88647,7.90918L450.64331,334.77ZM480,368H448a4.97274,4.97274,0,0,1,2.76465-4.4375L457.88892,360H472V344h-7.56665l6.55933-19.67871L475.31348,320H480Z"/></g></svg>
